<?xml version="1.0" standalone="no"?>
<!DOCTYPE svg PUBLIC "-//W3C//DTD SVG 20010904//EN"
 "http://www.w3.org/TR/2001/REC-SVG-20010904/DTD/svg10.dtd">
<svg version="1.0" xmlns="http://www.w3.org/2000/svg"
 width="3784.000000pt" height="3792.000000pt" viewBox="0 0 3784.000000 3792.000000"
 preserveAspectRatio="xMidYMid meet">

<g transform="translate(0.000000,3792.000000) scale(0.100000,-0.100000)"
fill="white" stroke="none">
<path d="M18542 37401 c-147 -143 -602 -595 -1012 -1005 l-745 -746 -2445 0
-2445 0 -1715 -1715 -1715 -1715 -1457 0 -1458 0 0 -1458 0 -1457 -1640 -1640
-1640 -1640 0 -2445 0 -2445 -1030 -1030 -1030 -1030 1030 -1037 1030 -1036 0
-2284 0 -2283 1635 -1635 1635 -1635 0 -1622 0 -1623 1623 0 1622 0 1555
-1555 1555 -1555 2285 0 2285 0 1172 -1172 1173 -1173 1173 1173 1172 1172
2175 0 2175 0 1555 1555 1555 1555 1617 0 1618 0 0 1618 0 1617 1630 1630
1630 1630 0 2175 0 2175 1152 1152 1153 1153 -1153 1153 -1152 1152 0 2335 0
2335 -1630 1630 -1630 1630 0 1457 0 1458 -1458 0 -1457 0 -1715 1715 -1715
1715 -2335 0 -2335 0 -1005 1005 c-553 553 -1009 1005 -1013 1005 -5 0 -129
-117 -275 -259z m776 -1234 c277 -277 500 -506 496 -510 -4 -4 -457 -7 -1006
-7 -764 0 -998 3 -998 12 0 11 989 1008 1000 1008 3 0 231 -226 508 -503z
m-3248 -1224 c0 -5 -244 -252 -542 -550 l-543 -543 -1205 0 -1205 0 -815 -815
-815 -815 -640 1 c-352 1 -683 4 -735 8 l-95 6 1355 1358 1354 1357 1943 0
c1069 0 1943 -3 1943 -7z m5009 -537 c541 -542 543 -543 511 -550 -48 -9
-5542 -6 -5565 4 -17 7 52 80 520 549 l540 541 1725 0 1725 0 544 -544z m5480
-813 l1351 -1358 -102 -6 c-57 -4 -387 -7 -733 -8 l-630 -1 -815 815 -815 815
-1090 0 -1090 0 -542 542 c-299 299 -543 546 -543 550 0 5 823 8 1829 8 l1829
0 1351 -1357z m-12289 -451 c0 -4 -206 -213 -458 -465 l-459 -459 -686 4
c-377 1 -689 7 -693 11 -5 4 196 212 446 462 l455 455 697 0 c384 0 698 -3
698 -8z m8520 -447 c250 -250 451 -458 446 -462 -10 -11 -7123 -16 -8086 -6
l-775 8 455 458 454 457 3526 0 3525 0 455 -455z m2181 -2 l454 -458 -85 -7
c-47 -3 -308 -6 -580 -7 l-495 -1 -457 457 c-252 252 -458 461 -458 465 0 5
262 8 583 8 l584 0 454 -457z m-17211 -1176 c0 -1 -340 -342 -755 -757 l-755
-755 0 758 0 757 755 0 c415 0 755 -1 755 -3z m495 -1987 l-1990 -1990 -6 72
c-4 40 -7 372 -8 738 l-1 665 1252 1252 1253 1253 745 0 745 0 -1990 -1990z
m1205 -1205 l-3195 -3195 -6 62 c-4 35 -7 349 -8 698 l-1 635 2497 2497 2498
2498 705 0 705 0 -3195 -3195z m18092 -392 l3588 -3588 0 -5275 0 -5275 -1760
-1760 c-967 -967 -1761 -1757 -1764 -1754 -3 2 -10 657 -15 1454 -6 798 -14
1510 -17 1582 l-7 133 -756 2 -756 3 -88 340 c-382 1483 -608 2339 -672 2550
-89 294 -284 725 -442 976 -296 471 -708 875 -1136 1114 -48 27 -84 52 -80 56
5 4 109 60 233 125 389 202 576 313 850 505 718 502 1218 1102 1523 1825 183
435 295 899 353 1464 21 210 30 862 15 1086 -54 781 -336 1618 -769 2284 -314
483 -741 936 -1217 1290 -281 210 -546 369 -919 551 -668 325 -1311 514 -2061
603 -449 54 -6 50 -5607 53 l-5158 3 0 -1663 0 -1664 593 -6 c325 -4 752 -7
948 -7 l356 0 6 -2612 c4 -1436 7 -4080 7 -5875 l0 -3263 -955 0 -955 0 0
-1665 0 -1665 3810 0 3810 0 0 1665 0 1665 -845 0 -845 0 0 2006 0 2005 938
-6 c998 -7 1194 -13 1392 -45 1065 -174 1688 -658 2057 -1600 187 -475 182
-452 728 -3729 179 -1069 327 -1946 330 -1950 4 -3 1108 -8 2455 -11 1347 -3
2452 -8 2455 -12 4 -4 -716 -732 -1600 -1618 l-1609 -1610 -5155 0 -5156 0
-3702 3702 -3703 3703 0 5045 0 5045 3702 3702 3703 3703 5155 0 5155 0 3587
-3587z m1089 1090 l2495 -2498 -5 -583 -6 -582 -3080 3080 -3080 3080 590 0
590 0 2496 -2497z m1247 1244 l1252 -1252 0 -738 c0 -405 -3 -737 -8 -737 -4
0 -898 892 -1987 1981 -1705 1707 -1977 1982 -1960 1989 11 5 342 9 735 9
l715 1 1253 -1253z m1251 741 c-1 -282 -4 -618 -8 -746 l-6 -232 -745 745
-745 745 753 0 752 0 -1 -512z m3271 -7098 l0 -1835 -470 470 -470 470 0 1090
0 1090 -810 810 -810 810 0 745 0 745 1280 -1280 1280 -1280 0 -1835z m-28861
3580 l1 -665 -814 -814 -813 -813 -7 -1211 -7 -1212 -462 -462 c-254 -255
-465 -463 -469 -463 -5 0 -8 874 -8 1943 l0 1943 1282 1279 1283 1280 6 -70
c4 -38 7 -369 8 -735z m27211 -3175 l0 -590 -455 455 -455 455 0 590 0 590
455 -455 455 -455 0 -590z m-27221 740 l1 -650 -452 -452 c-249 -249 -456
-453 -460 -453 -5 0 -8 314 -8 697 l0 698 453 453 452 452 7 -47 c3 -27 7
-340 7 -698z m13066 -115 c1267 -9 1239 -8 1585 -66 850 -141 1476 -518 1799
-1083 174 -302 271 -687 271 -1063 -1 -508 -91 -868 -298 -1183 -411 -629
-1164 -975 -2272 -1045 -85 -5 -765 -11 -1510 -12 l-1355 -3 -3 2220 c-1 1221
0 2226 3 2233 5 14 81 14 1780 2z m14155 -5870 l0 -3655 -455 -455 -455 -455
0 4565 0 4565 455 -455 455 -455 0 -3655z m-27221 -272 c0 -2227 -2 -4048 -7
-4048 -4 0 -211 204 -460 453 l-452 453 0 3414 0 3415 453 453 452 452 6 -272
c4 -150 7 -2094 8 -4320z m28413 2735 l458 -458 0 -2006 0 -2005 -462 -460
-463 -459 -6 660 c-11 1200 -5 5185 9 5185 4 0 213 -206 464 -457z m-30042
-2465 l0 -2703 -470 470 -470 470 0 1765 0 1765 467 467 c258 258 469 468 470
468 2 0 3 -1216 3 -2702z m31860 -641 l-645 -642 -6 115 c-9 158 -11 2121 -2
2309 l6 153 646 -646 646 -647 -645 -642z m-33500 648 c0 -575 -4 -1045 -8
-1045 -5 0 -245 234 -533 519 l-524 520 526 525 c289 289 528 526 532 526 4 0
7 -470 7 -1045z m1640 -4915 l0 -1205 815 -815 815 -815 0 -580 0 -580 -1285
1285 -1285 1285 0 1785 0 1785 470 -470 470 -470 0 -1205z m30499 15 l1 -1460
-1280 -1280 -1280 -1280 0 590 0 590 810 810 810 810 0 1085 0 1085 463 463
462 462 6 -207 c3 -115 7 -865 8 -1668z m-28869 -1145 l0 -705 -460 460 -460
460 0 705 0 705 460 -460 460 -460 0 -705z m27219 730 l1 -515 -455 -455 -455
-455 0 585 0 585 448 448 447 447 6 -62 c4 -35 7 -295 8 -578z m-20816 -7133
l-697 -8 -2498 2498 -2498 2498 0 705 0 705 3195 -3195 3195 -3195 -697 -8z
m16693 2496 l-2501 -2503 -585 0 -585 0 3080 3080 3080 3080 6 -577 5 -578
-2500 -2502z m-18546 -2494 c-74 -4 -331 -7 -570 -8 l-435 -1 -1417 1417
-1418 1418 0 580 0 580 1988 -1990 1987 -1990 -135 -6z m19636 1404 l-1411
-1413 -385 0 c-436 0 -762 9 -758 21 2 5 892 900 1978 1990 l1975 1982 6 -584
5 -584 -1410 -1412z m-22361 -694 l700 -704 -210 -6 c-115 -3 -524 -7 -907 -8
l-698 -1 0 859 c0 472 3 879 6 904 l7 47 201 -194 c110 -107 516 -510 901
-897z m23772 -164 l-2 -550 -910 -3 -910 -2 905 905 905 905 7 -352 c4 -194 7
-600 5 -903z m-19382 -2065 l810 -810 1205 0 1205 0 395 -395 395 -395 -1785
0 -1785 0 -1205 1205 -1205 1205 580 0 580 0 810 -810z m2060 350 l460 -460
-706 0 -705 0 -447 449 c-246 247 -447 454 -447 460 0 8 195 11 693 11 l692 0
460 -460z m9385 451 l45 -7 -449 -452 -450 -452 -3537 0 -3537 0 -447 453
-447 452 39 6 c54 9 8728 9 8783 0z m2220 2 c0 -5 -204 -212 -452 -460 l-453
-453 -585 0 -585 0 460 460 460 460 577 0 c318 0 578 -3 578 -7z m2170 -4 c0
-6 -536 -548 -1192 -1205 l-1191 -1194 -1676 0 -1676 0 395 395 395 395 1085
0 1085 0 810 810 810 810 577 0 c407 0 578 -3 578 -11z m-6375 -1618 l410 -6
-384 -387 -385 -388 -2047 0 -2047 0 -382 388 -382 387 369 5 c529 8 4362 8
4848 1z m-1140 -1490 l60 -6 -663 -665 -663 -665 -660 665 -661 665 54 6 c73
8 2459 8 2533 0z"/>
</g>
</svg>
