<?xml version="1.0" standalone="no"?>
<!DOCTYPE svg PUBLIC "-//W3C//DTD SVG 20010904//EN"
 "http://www.w3.org/TR/2001/REC-SVG-20010904/DTD/svg10.dtd">
<svg version="1.0" xmlns="http://www.w3.org/2000/svg"
 width="388.000000pt" height="374.000000pt" viewBox="0 0 388.000000 374.000000"
 preserveAspectRatio="xMidYMid meet">

<g transform="translate(0.000000,374.000000) scale(0.100000,-0.100000)"
fill="red" stroke="none">
<path d="M952 3632 l-842 -2 0 -1605 0 -1605 200 0 200 0 0 -200 0 -200 1610
0 1610 0 0 1604 c0 1453 -1 1604 -16 1610 -9 3 -101 6 -205 6 l-189 0 -2 198
-3 197 -760 0 c-418 0 -1139 -1 -1603 -3z m2176 -110 l82 -4 0 -134 c0 -99 -3
-136 -12 -139 -17 -5 -1391 -15 -2110 -15 l-578 0 0 -1345 0 -1345 -145 0
-145 0 0 1488 c0 819 3 1492 7 1496 8 7 2762 6 2901 -2z m80 -1694 l2 -1288
-1295 0 -1295 0 0 1290 0 1290 1293 -2 1292 -3 3 -1287z m397 -203 l0 -1490
-1490 0 -1490 0 -3 143 -3 142 1351 0 1350 0 0 1350 0 1351 143 -3 142 -3 0
-1490z"/>
<path d="M1142 2563 l3 -158 93 -3 92 -3 -2 -572 -3 -572 -93 -3 -93 -3 3
-157 3 -157 370 0 370 0 1 158 1 157 -83 0 -84 0 0 202 0 201 123 -6 c152 -8
188 -18 243 -69 60 -55 76 -106 124 -390 23 -133 44 -246 46 -250 3 -5 120 -8
260 -8 l254 0 0 175 0 175 -75 0 -74 0 -11 43 c-71 275 -109 363 -179 415 -17
12 -31 27 -31 31 0 5 22 23 50 40 157 96 220 212 220 401 0 152 -39 250 -137
347 -60 60 -110 91 -208 130 l-70 28 -558 3 -558 3 3 -158z m946 -177 c107
-29 161 -100 162 -211 0 -45 -6 -69 -23 -97 -53 -87 -117 -109 -339 -116
l-168 -5 0 222 0 221 158 0 c103 0 175 -5 210 -14z"/>
</g>
</svg>
