<?xml version="1.0" standalone="no"?>
<!DOCTYPE svg PUBLIC "-//W3C//DTD SVG 20010904//EN"
 "http://www.w3.org/TR/2001/REC-SVG-20010904/DTD/svg10.dtd">
<svg version="1.0" xmlns="http://www.w3.org/2000/svg"
 width="300.000000pt" height="289.000000pt" viewBox="0 0 300.000000 289.000000"
 preserveAspectRatio="xMidYMid meet">
<metadata>
Created by potrace 1.10, written by Peter Selinger 2001-2011
</metadata>
<g transform="translate(0.000000,289.000000) scale(0.100000,-0.100000)"
fill="white" stroke="none">
<path d="M1318 2812 l-1238 -2 0 -1243 0 -1243 156 0 156 1 -2 -155 -1 -155
1246 0 1245 0 0 1245 0 1245 -156 0 -156 0 1 152 c1 83 -2 153 -6 155 -4 1
-565 2 -1245 0z m1203 -42 c7 -5 12 -52 13 -133 1 -160 7 -168 116 -170 45 -1
75 -6 77 -13 3 -8 -8 -10 -33 -7 -48 6 -114 -4 -138 -22 -14 -11 -20 -29 -22
-62 -3 -73 -3 -75 -15 -68 -6 4 -10 23 -9 44 3 62 1 70 -27 88 -26 17 -86 18
-1008 18 l-980 0 -22 -23 c-18 -18 -23 -35 -24 -75 0 -29 -1 -301 -1 -604 -1
-304 -5 -553 -9 -553 -5 0 -9 237 -9 528 -1 290 -1 573 -2 628 0 56 3 107 6
113 5 7 305 10 1010 10 552 -1 1013 2 1024 5 36 12 51 62 46 156 -4 77 -7 87
-32 108 -26 22 -31 22 -238 18 -116 -2 -241 -1 -278 3 -37 4 -69 4 -71 0 -3
-3 -108 -7 -235 -7 -168 0 -228 3 -223 12 5 8 3 8 -8 0 -10 -8 -189 -11 -614
-9 -665 2 -659 2 -670 -57 -3 -18 -5 -42 -4 -53 1 -11 0 -515 0 -1119 l-2
-1100 26 -22 c21 -18 39 -22 110 -23 81 -2 115 6 140 33 14 16 15 22 16 148 1
68 5 101 9 82 4 -16 5 -60 4 -96 -5 -103 13 -147 66 -161 14 -4 459 -7 988 -7
l964 0 28 24 c16 13 26 27 23 30 -4 3 -1 6 6 6 8 0 11 -13 9 -37 l-3 -38
-1005 -2 c-553 -1 -1014 -5 -1025 -7 -35 -9 -46 -42 -47 -136 0 -101 4 -120
32 -138 31 -19 2294 -19 2314 0 36 37 36 31 32 1188 -5 1051 -6 1134 -22 1151
-9 10 -28 19 -41 19 -12 0 -23 6 -23 13 0 9 14 13 48 11 26 0 50 -2 54 -3 8
-1 5 -2398 -4 -2406 -4 -4 -2325 -10 -2396 -6 -9 1 -12 18 -11 58 3 147 -2
201 -21 226 -19 24 -24 25 -152 26 -73 1 -135 4 -138 7 -11 11 -9 2388 2 2401
8 10 250 12 1199 11 654 -1 1194 -5 1200 -8z m-41 -160 l0 -110 -1042 0 -1043
0 -2 -1042 c-2 -574 -5 -1042 -8 -1040 -3 1 -52 2 -110 2 l-105 0 0 1150 0
1150 1155 0 1155 0 0 -110z m0 -1195 l0 -995 -1000 0 -1000 0 0 995 0 995
1000 0 1000 0 0 -995z m310 -160 l0 -1155 -1155 0 -1155 0 0 114 0 114 1045
-3 1045 -3 0 1044 0 1044 110 0 110 0 0 -1155z m-264 970 c-5 -64 -16 -69 -16
-7 0 29 4 52 9 52 5 0 8 -20 7 -45z m1 -272 c0 -108 -3 -154 -8 -128 -9 49 -9
295 1 295 4 0 7 -75 7 -167z m2 -575 c1 -201 -1 -368 -6 -371 -4 -3 -8 170 -8
384 0 214 2 381 6 372 3 -10 7 -183 8 -385z m-2083 -327 c-1 -60 -4 -113 -9
-117 -6 -7 -10 77 -6 146 1 14 2 37 3 53 0 15 4 27 7 27 3 0 5 -49 5 -109z
m-1 -227 c0 -46 -3 -84 -7 -84 -5 0 -8 41 -8 92 0 50 3 88 8 84 4 -4 7 -46 7
-92z m2082 -56 c-2 -18 -4 -6 -4 27 0 33 2 48 4 33 2 -15 2 -42 0 -60z m1
-165 c-1 -100 -3 -114 -7 -63 -6 66 -3 190 5 190 2 0 3 -57 2 -127z"/>
<path fill="white" d="M880 1982 l0 -129 75 5 75 5 0 -447 0 -446 -75 0 -75 0 0 -125 0
-125 290 0 290 0 0 126 0 126 -65 -4 -65 -3 0 155 0 155 107 -5 c85 -4 116
-10 143 -26 42 -24 76 -72 91 -128 8 -31 69 -377 69 -393 0 -2 93 -3 206 -3
184 0 205 2 200 16 -3 9 -6 69 -6 135 l0 119 -57 0 -58 0 -24 98 c-30 126 -66
205 -108 242 -18 17 -38 30 -43 30 -23 0 -7 17 27 29 20 8 62 39 93 70 75 74
105 155 98 270 -10 173 -113 296 -298 357 -48 16 -105 18 -472 22 l-418 4 0
-130z m881 72 c58 -17 155 -71 179 -101 32 -38 80 -117 81 -132 0 -9 2 -25 4
-36 12 -76 13 -117 4 -146 -6 -19 -12 -41 -14 -50 -12 -54 -54 -103 -147 -172
-21 -16 -38 -35 -38 -44 0 -9 17 -37 38 -62 58 -71 79 -121 102 -242 14 -72
32 -96 82 -110 24 -6 46 -16 50 -23 9 -13 10 -148 2 -170 -5 -14 -29 -16 -164
-16 -92 0 -161 4 -165 10 -6 10 -28 125 -46 240 -36 228 -102 298 -291 305
-84 3 -92 2 -114 -20 -23 -23 -24 -30 -24 -168 0 -163 4 -173 75 -179 l40 -3
3 -92 3 -93 -250 0 -249 0 -7 40 c-8 49 2 132 18 142 7 4 31 8 54 8 75 0 73
-14 73 471 0 413 -1 427 -20 452 -16 20 -31 27 -68 29 l-47 3 -5 65 c-3 36 -4
75 -2 88 l3 22 393 0 c330 0 401 -3 447 -16z"/>
<path fill="white" d="M1323 1875 c-22 -16 -23 -21 -23 -184 0 -217 -9 -206 176 -205 121 1
137 4 181 27 26 13 61 41 78 62 28 34 30 43 30 114 0 53 -5 82 -15 95 -71 86
-104 99 -270 104 -114 3 -139 1 -157 -13z m325 -47 c63 -31 92 -76 92 -142 0
-62 -23 -104 -76 -137 -34 -21 -54 -24 -186 -29 l-148 -5 0 174 0 174 136 -6
c114 -4 142 -9 182 -29z"/>
</g>
</svg>
